<svg width="14" height="14" viewBox="0 0 14 14" fill="none" xmlns="http://www.w3.org/2000/svg">
<g id="bx:lock-alt">
<path id="Vector" d="M6.99967 1.1665C5.39142 1.1665 4.08301 2.47492 4.08301 4.08317V5.83317H3.49967C2.85626 5.83317 2.33301 6.35642 2.33301 6.99984V11.6665C2.33301 12.3099 2.85626 12.8332 3.49967 12.8332H10.4997C11.1431 12.8332 11.6663 12.3099 11.6663 11.6665V6.99984C11.6663 6.35642 11.1431 5.83317 10.4997 5.83317H9.91634V4.08317C9.91634 2.47492 8.60792 1.1665 6.99967 1.1665ZM10.4997 6.99984L10.5008 11.6665H3.49967V6.99984H10.4997ZM5.24967 5.83317V4.08317C5.24967 3.11834 6.03484 2.33317 6.99967 2.33317C7.96451 2.33317 8.74967 3.11834 8.74967 4.08317V5.83317H5.24967Z" fill="#F2F2F2" fill-opacity="0.5"/>
</g>
</svg>
