<svg width="28" height="28" viewBox="0 0 28 28" fill="none" xmlns="http://www.w3.org/2000/svg">
<g id="fluent:sparkle-48-filled">
<path id="Vector" d="M10.1827 18.3808C10.4451 18.5668 10.7586 18.6671 11.0803 18.6679C11.4019 18.6688 11.716 18.5701 11.9794 18.3855C12.2156 18.2175 12.4011 17.9876 12.5143 17.7211L13.2353 15.5225C13.4116 14.9925 13.709 14.511 14.1039 14.1161C14.4988 13.7212 14.9803 13.4238 15.5103 13.2475L17.6284 12.5574C17.9323 12.4502 18.1955 12.2514 18.3817 11.9883C18.5679 11.7252 18.6678 11.4109 18.6678 11.0886C18.6678 10.7663 18.5679 10.4519 18.3817 10.1888C18.1955 9.92576 17.9323 9.72692 17.6284 9.61973L15.47 8.92381C14.9417 8.74715 14.4616 8.4504 14.0674 8.05688C13.6732 7.66335 13.3755 7.18377 13.1979 6.65581L12.5102 4.53889C12.4031 4.23488 12.2042 3.97169 11.9409 3.78581C11.6764 3.60303 11.3625 3.50513 11.0411 3.50513C10.7196 3.50513 10.4057 3.60303 10.1413 3.78581C9.87324 3.97562 9.67179 4.24504 9.56552 4.55581L8.86961 6.69489C8.69296 7.20941 8.40191 7.67715 8.01836 8.06293C7.63482 8.4487 7.16876 8.74245 6.65527 8.92206L4.53952 9.60923C4.23396 9.71687 3.96957 9.91711 3.78316 10.1821C3.59676 10.447 3.49761 10.7635 3.49954 11.0875C3.50146 11.4115 3.60436 11.7268 3.79391 11.9895C3.98345 12.2522 4.2502 12.4493 4.55702 12.5533L6.64944 13.2329C7.17965 13.4107 7.66128 13.7093 8.0563 14.1051C8.45132 14.5009 8.74892 14.9832 8.92561 15.5137L9.61394 17.6271C9.72069 17.9311 9.91961 18.1947 10.1827 18.3808ZM19.1771 23.7078C19.3688 23.8436 19.5978 23.9168 19.8328 23.9172L19.8357 23.919C20.0735 23.9188 20.3053 23.844 20.4983 23.705C20.6914 23.566 20.8358 23.3698 20.9114 23.1443L21.2433 22.1235C21.3114 21.9198 21.4258 21.7347 21.5775 21.5826C21.7292 21.4306 21.9141 21.3158 22.1177 21.2473L23.1619 20.9078C23.3272 20.8493 23.4768 20.7533 23.5988 20.6272C23.7209 20.5012 23.812 20.3486 23.8651 20.1814C23.9183 20.0142 23.9319 19.837 23.905 19.6637C23.8782 19.4903 23.8115 19.3255 23.7102 19.1823C23.5661 18.9806 23.3603 18.8311 23.1239 18.7565L22.099 18.4246C21.8953 18.3565 21.7103 18.242 21.5584 18.0902C21.4065 17.9383 21.2921 17.7532 21.224 17.5496L20.8845 16.506C20.8062 16.2828 20.6601 16.0896 20.4665 15.9536C20.273 15.8176 20.0418 15.7455 19.8052 15.7474C19.5687 15.7494 19.3387 15.8252 19.1474 15.9644C18.9561 16.1035 18.8131 16.299 18.7384 16.5235L18.4048 17.5484C18.3386 17.749 18.2275 17.9319 18.0799 18.083C17.9323 18.2342 17.7521 18.3496 17.5531 18.4205L16.5089 18.76C16.2858 18.8382 16.0928 18.9842 15.9568 19.1776C15.8208 19.371 15.7487 19.6021 15.7506 19.8385C15.7525 20.0749 15.8282 20.3048 15.9672 20.496C16.1062 20.6872 16.3016 20.8302 16.5259 20.9049L17.5479 21.2374C17.7521 21.3055 17.9375 21.4204 18.0895 21.573C18.2414 21.7255 18.3556 21.9114 18.4229 22.1159L18.7624 23.1589C18.8405 23.3806 18.9858 23.5725 19.1771 23.7078Z" fill="#F2F2F2"/>
</g>
</svg>
