<svg width="24" height="24" viewBox="0 0 24 24" fill="none" xmlns="http://www.w3.org/2000/svg">
<g id="heroicons:tag-20-solid">
<path id="Vector" fill-rule="evenodd" clip-rule="evenodd" d="M6.6001 3.6001C5.80445 3.6001 5.04139 3.91617 4.47878 4.47878C3.91617 5.04139 3.6001 5.80445 3.6001 6.6001V10.0549C3.60027 10.8502 3.91622 11.6129 4.4785 12.1753L12.2785 19.9753C12.5571 20.254 12.8878 20.475 13.2519 20.6258C13.6159 20.7766 14.0061 20.8543 14.4001 20.8543C14.7941 20.8543 15.1843 20.7766 15.5483 20.6258C15.9124 20.475 16.2431 20.254 16.5217 19.9753L19.9753 16.5217C20.254 16.2431 20.475 15.9124 20.6258 15.5483C20.7766 15.1843 20.8543 14.7941 20.8543 14.4001C20.8543 14.0061 20.7766 13.6159 20.6258 13.2519C20.475 12.8878 20.254 12.5571 19.9753 12.2785L12.1753 4.4785C11.6132 3.91651 10.851 3.60059 10.0561 3.6001H6.6001ZM7.2001 8.4001C7.51836 8.4001 7.82358 8.27367 8.04862 8.04862C8.27367 7.82358 8.4001 7.51836 8.4001 7.2001C8.4001 6.88184 8.27367 6.57661 8.04862 6.35157C7.82358 6.12653 7.51836 6.0001 7.2001 6.0001C6.88184 6.0001 6.57661 6.12653 6.35157 6.35157C6.12653 6.57661 6.0001 6.88184 6.0001 7.2001C6.0001 7.51836 6.12653 7.82358 6.35157 8.04862C6.57661 8.27367 6.88184 8.4001 7.2001 8.4001Z" fill="#F2F2F2"/>
</g>
</svg>
